HIERARCHY
ROOT Hips
{
  OFFSET -2.9740628571428576 95.22824285714285 -3.405862857142857
  CHANNELS 6 Xposition Zposition Yposition Zrotation Xrotation Yrotation
  JOINT LeftUpLeg
  {
    OFFSET 8.64259 1.9539799999999998 -2.3883499999999995
    CHANNELS 3 Zrotation Xrotation Yrotation
    JOINT LeftLeg
    {
      OFFSET 43.770199999999996 0.0 0.0
      CHANNELS 3 Zrotation Xrotation Yrotation
      JOINT LeftFoot
      {
        OFFSET 40.62380000000001 0.0 0.0
        CHANNELS 3 Zrotation Xrotation Yrotation
        JOINT LeftToeBase
        {
          OFFSET 12.724199999999998 0.0 0.0
          CHANNELS 3 Zrotation Xrotation Yrotation
          End Site
          {
            OFFSET 0.0 0.0 0.0
          }
        }
      }
    }
  }
  JOINT RightUpLeg
  {
    OFFSET -8.2249 1.9539799999999998 -2.59336
    CHANNELS 3 Zrotation Xrotation Yrotation
    JOINT RightLeg
    {
      OFFSET 43.56529999999999 0.0 0.0
      CHANNELS 3 Zrotation Xrotation Yrotation
      JOINT RightFoot
      {
        OFFSET 40.62380000000001 0.0 0.0
        CHANNELS 3 Zrotation Xrotation Yrotation
        JOINT RightToeBase
        {
          OFFSET 12.724199999999998 0.0 0.0
          CHANNELS 3 Zrotation Xrotation Yrotation
          End Site
          {
            OFFSET 0.0 0.0 0.0
          }
        }
      }
    }
  }
  JOINT Spine
  {
    OFFSET 0.16583 0.8771399999999999 6.61349
    CHANNELS 3 Zrotation Xrotation Yrotation
    JOINT Spine1
    {
      OFFSET 7.389628571428571 2e-05 0.0
      CHANNELS 3 Zrotation Xrotation Yrotation
      JOINT Spine2
      {
        OFFSET 11.944500000000001 1e-05 0.0
        CHANNELS 3 Zrotation Xrotation Yrotation
        JOINT Spine3
        {
          OFFSET 14.725400000000004 4e-05 0.0
          CHANNELS 3 Zrotation Xrotation Yrotation
          JOINT Spine4
          {
            OFFSET 10.9679 0.0 0.0
            CHANNELS 3 Zrotation Xrotation Yrotation
            JOINT RightShoulder
            {
              OFFSET 2.46616 -1.6653 3.69651
              CHANNELS 3 Zrotation Xrotation Yrotation
              JOINT RightArm
              {
                OFFSET 13.001199999999999 0.0 0.0
                CHANNELS 3 Zrotation Xrotation Yrotation
                JOINT RightForeArm
                {
                  OFFSET 28.784799999999997 2e-05 0.0
                  CHANNELS 3 Zrotation Xrotation Yrotation
                  JOINT RightHand
                  {
                    OFFSET 26.568800000000003 2e-05 0.0
                    CHANNELS 3 Zrotation Xrotation Yrotation
                    JOINT RightHandMiddle1
                    {
                      OFFSET 8.03675 -0.8865800000000001 0.7278700000000001
                      CHANNELS 3 Zrotation Xrotation Yrotation
                      JOINT RightHandMiddle2
                      {
                        OFFSET 2.7883299999999993 0.0 0.0
                        CHANNELS 3 Zrotation Xrotation Yrotation
                        JOINT RightHandMiddle3
                        {
                          OFFSET 2.4115500000000005 0.0 0.0
                          CHANNELS 3 Zrotation Xrotation Yrotation
                          End Site
                          {
                            OFFSET 0.0 0.0 0.0
                          }
                        }
                      }
                    }
                    JOINT RightHandRing1
                    {
                      OFFSET 7.979660000000002 -0.8867700000000002 -1.00486
                      CHANNELS 3 Zrotation Xrotation Yrotation
                      JOINT RightHandRing2
                      {
                        OFFSET 2.8636799999999996 0.0 0.0
                        CHANNELS 3 Zrotation Xrotation Yrotation
                        JOINT RightHandRing3
                        {
                          OFFSET 2.11079 0.0 0.0
                          CHANNELS 3 Zrotation Xrotation Yrotation
                          End Site
                          {
                            OFFSET 0.0 0.0 0.0
                          }
                        }
                      }
                    }
                    JOINT RightHandPinky1
                    {
                      OFFSET 8.03707 -0.8875299999999999 -2.6069600000000004
                      CHANNELS 3 Zrotation Xrotation Yrotation
                      JOINT RightHandPinky2
                      {
                        OFFSET 1.8462757142857142 0.0 0.0
                        CHANNELS 3 Zrotation Xrotation Yrotation
                        JOINT RightHandPinky3
                        {
                          OFFSET 1.8843400000000001 0.0 0.0
                          CHANNELS 3 Zrotation Xrotation Yrotation
                          End Site
                          {
                            OFFSET 0.0 0.0 0.0
                          }
                        }
                      }
                    }
                    JOINT RightHandIndex1
                    {
                      OFFSET 7.92262 -0.8855000000000002 2.31175
                      CHANNELS 3 Zrotation Xrotation Yrotation
                      JOINT RightHandIndex2
                      {
                        OFFSET 2.63761 0.0 0.0
                        CHANNELS 3 Zrotation Xrotation Yrotation
                        JOINT RightHandIndex3
                        {
                          OFFSET 2.16656 0.0 0.0
                          CHANNELS 3 Zrotation Xrotation Yrotation
                          End Site
                          {
                            OFFSET 0.0 0.0 0.0
                          }
                        }
                      }
                    }
                    JOINT RightHandThumb1
                    {
                      OFFSET 3.4769 0.059800000000000006 2.8878899999999996
                      CHANNELS 3 Zrotation Xrotation Yrotation
                      JOINT RightHandThumb2
                      {
                        OFFSET 2.7768599999999997 0.00010000000000000002 -2e-05
                        CHANNELS 3 Zrotation Xrotation Yrotation
                        JOINT RightHandThumb3
                        {
                          OFFSET 2.420578571428571 -9e-05 0.0
                          CHANNELS 3 Zrotation Xrotation Yrotation
                          End Site
                          {
                            OFFSET 0.0 0.0 0.0
                          }
                        }
                      }
                    }
                  }
                }
              }
            }
            JOINT LeftShoulder
            {
              OFFSET 2.3803400000000003 -1.29275 -3.7523014285714282
              CHANNELS 3 Zrotation Xrotation Yrotation
              JOINT LeftArm
              {
                OFFSET 16.3182 5.9999999999999995e-05 0.0
                CHANNELS 3 Zrotation Xrotation Yrotation
                JOINT LeftForeArm
                {
                  OFFSET 27.090100000000003 0.0 0.0
                  CHANNELS 3 Zrotation Xrotation Yrotation
                  JOINT LeftHand
                  {
                    OFFSET 24.545099999999998 2e-05 0.0
                    CHANNELS 3 Zrotation Xrotation Yrotation
                    JOINT LeftHandMiddle1
                    {
                      OFFSET 9.218019999999997 0.66582 0.5455300000000002
                      CHANNELS 3 Zrotation Xrotation Yrotation
                      JOINT LeftHandMiddle2
                      {
                        OFFSET 2.66255 0.0 0.0
                        CHANNELS 3 Zrotation Xrotation Yrotation
                        JOINT LeftHandMiddle3
                        {
                          OFFSET 2.2804 0.0 0.0
                          CHANNELS 3 Zrotation Xrotation Yrotation
                          End Site
                          {
                            OFFSET 0.0 0.0 0.0
                          }
                        }
                      }
                    }
                    JOINT LeftHandRing1
                    {
                      OFFSET 9.247749999999998 0.66519 -1.1266999999999998
                      CHANNELS 3 Zrotation Xrotation Yrotation
                      JOINT LeftHandRing2
                      {
                        OFFSET 2.4704099999999998 0.0 -2e-05
                        CHANNELS 3 Zrotation Xrotation Yrotation
                        JOINT LeftHandRing3
                        {
                          OFFSET 2.2054000000000005 0.0 0.0
                          CHANNELS 3 Zrotation Xrotation Yrotation
                          End Site
                          {
                            OFFSET 0.0 0.0 0.0
                          }
                        }
                      }
                    }
                    JOINT LeftHandPinky1
                    {
                      OFFSET 9.35383857142857 0.66301 -2.7233200000000006
                      CHANNELS 3 Zrotation Xrotation Yrotation
                      JOINT LeftHandPinky2
                      {
                        OFFSET 1.63407 0.0 0.0
                        CHANNELS 3 Zrotation Xrotation Yrotation
                        JOINT LeftHandPinky3
                        {
                          OFFSET 1.71176 0.0 0.0
                          CHANNELS 3 Zrotation Xrotation Yrotation
                          End Site
                          {
                            OFFSET 0.0 0.0 0.0
                          }
                        }
                      }
                    }
                    JOINT LeftHandIndex1
                    {
                      OFFSET 8.731608571428572 0.6758999999999998 2.0680099999999997
                      CHANNELS 3 Zrotation Xrotation Yrotation
                      JOINT LeftHandIndex2
                      {
                        OFFSET 2.6668899999999995 0.0 0.0
                        CHANNELS 3 Zrotation Xrotation Yrotation
                        JOINT LeftHandIndex3
                        {
                          OFFSET 2.12946 0.0 2e-05
                          CHANNELS 3 Zrotation Xrotation Yrotation
                          End Site
                          {
                            OFFSET 0.0 0.0 0.0
                          }
                        }
                      }
                    }
                    JOINT LeftHandThumb1
                    {
                      OFFSET 4.967354285714285 -0.62265 3.3958599999999994
                      CHANNELS 3 Zrotation Xrotation Yrotation
                      JOINT LeftHandThumb2
                      {
                        OFFSET 2.15386 2e-05 0.0
                        CHANNELS 3 Zrotation Xrotation Yrotation
                        JOINT LeftHandThumb3
                        {
                          OFFSET 2.1951099999999997 -2.9999999999999997e-05 2e-05
                          CHANNELS 3 Zrotation Xrotation Yrotation
                          End Site
                          {
                            OFFSET 0.0 0.0 0.0
                          }
                        }
                      }
                    }
                  }
                }
              }
            }
            JOINT Neck
            {
              OFFSET 5.0226 -0.026629999999999994 0.0
              CHANNELS 3 Zrotation Xrotation Yrotation
              JOINT Head
              {
                OFFSET 6.693637142857143 2.9999999999999997e-05 0.0
                CHANNELS 3 Zrotation Xrotation Yrotation
                End Site
                {
                  OFFSET 0.0 0.0 0.0
                }
              }
            }
          }
        }
      }
    }
  }
}
MOTION
Frames: 4
Frame Time: 0.03333333
12.93343438024404 218.0070193265557 78.43173798558256 95.64864542996399 -39.55219007613983 91.2608705787909 -161.07855558385478 46.942025781746196 109.97554172359344 -49.91288110332221 -32.84368342684702 -8.950954310619347 52.50796640992953 -54.424540604531344 -35.32013686341626 28.78080000000004 5.310542323474627e-06 6.451446023941061e-06 -79.65842910501186 58.22200571103139 41.574007650129246 -54.647928284406035 19.06002560705467 -1.839348617596348 47.91672050713407 36.022211021415416 25.13554768391713 28.780799811463996 1.3958988043574484e-05 2.7754842750067562e-05 0.14048035483645274 12.310197133109419 -87.04328333539524 2.201384641725255 3.4484488476519886 1.9489860446500693 -9.516295741031184 3.515565254679828 1.7787080512986868 -32.04931974202139 2.673499232384626 2.843705088283962 -12.036119728446598 2.636226817730975 2.847667873930099 75.74334351692939 -43.11680617328056 -125.40928156117101 0.8065706991673292 21.706992405261985 -49.611059362949405 33.2667241532755 7.188051634796765 -102.80821282069566 -7.310412638791699 0.8353249380309051 -1.189812713285351 -89.4039229587225 88.97090000000044 89.09362448493748 -0.06048752032047706 4.468204679757747e-06 -3.9359193360407085e-07 -0.06392139950697533 2.5232965530790516e-06 -1.706082831377448e-06 -89.39481477347005 88.98100056174205 89.08461797845759 -1.157420175999137 -4.158745131999995e-06 -1.2238076382583288e-07 2.576000166986648 -1.1892284782193059e-06 -2.2191174056781867e-06 -88.85714398834502 89.35790000000085 88.5469482416838 -1.1457797629000626 2.6799082964576277e-06 0.0001567772183043572 1.145769936978193 9.961916117151555e-07 -1.8350563890260883e-06 -89.42259580737475 88.94869999999894 89.11229802751505 0.40928374714529864 8.849940763546923e-06 0.0006712779703362269 -0.6366019618270082 -4.440861747927299e-06 -1.9221819204729464e-06 104.36400009178581 40.502292979593626 -88.82460100838063 -7.669029383209514 0.1861783934734052 -1.3504405597283335 -11.263400000000185 7.771660504895692e-08 6.343231513113615e-05 -89.96978065507001 -57.12909225548714 78.12698981132121 -26.096444256824505 -10.840693447683604 -16.616724572363566 0.790652533752664 3.2454338648172047 -47.11562802256106 -3.704004363645703 -3.81202698364603 -43.03885078695815 -91.18710846166188 -87.82890000000052 -89.99860854545335 3.408879965253248 -6.38870898882947e-06 0.0033165522579286294 -0.9548601187233926 -6.460610880045671e-06 1.5317847325694655e-06 -91.18713283712952 -89.40149999999925 -89.99852747809433 2.8563696812076604 -6.7876624246416295e-06 0.0027566167704725915 -3.1684399203140052 5.046861759292736e-06 1.1454787938986206e-06 88.80848810519909 -89.7170994629465 89.9969866504512 2.5448101686369524 4.154972035188412e-06 0.0024245716450406944 -2.5448199476149855 -1.6415871324489512e-06 1.190319312092654e-06 -91.18829490865373 -86.19730000000104 -89.99979489858237 6.131040293021241 4.540627210281135e-06 0.006556981484855057 -2.0454201546589506 -8.546560520845026e-06 4.385584525437376e-06 -101.94900000000015 -40.72420000000034 -90.06940000000097 10.017200000000015 3.8072997232110263e-06 -1.2685224436967342e-06 -2.669759649761384 -2.4012998271200255e-06 -1.23324096027353e-06 51.80563640224237 0.22713809805083018 -1.131325876341748 -36.0265437264176 -6.48019727500607 0.6280653460469596
12.76520713036972 218.9012354628268 78.43693517984318 95.66580091046427 -39.569404252496945 91.25518528090709 -161.05673841190693 46.94696790766368 109.96822189011704 -49.900589001831314 -32.849154429216036 -8.972749066639937 52.49011846347794 -54.41732944408631 -35.32297500495754 28.78080000000004 5.310878170647303e-06 6.4524435075189455e-06 -79.67122074185698 58.22870339576763 41.59659414858584 -54.65285170752034 19.071134529433557 -1.836451215475459 47.929143246332345 36.03007820742652 25.134723574201104 28.780799810363195 1.3958836758055154e-05 2.7755515248762277e-05 0.14168967341963734 12.310042013897942 -87.04270411355255 2.201876540545449 3.451798665905883 1.9491694333365646 -9.515893934323806 3.5189320618605158 1.7786554482524786 -32.04893044746883 2.676595296349974 2.844808522868452 -12.035647371078298 2.639284271801461 2.848800381543539 75.74376102506912 -43.12921877625102 -125.39884054159143 0.7979235138587661 21.69813297110029 -49.592471066965544 33.27976656141013 7.208777691591606 -102.78498920622914 -7.31393020477067 0.8366159339629882 -1.1814967139013675 -89.40392304137002 88.97090000000044 89.09362456744748 -0.060487520490309046 4.467826377323144e-06 -3.9327574651134216e-07 -0.06392139899592686 2.52288871478824e-06 -1.7057667959067998e-06 -89.39481482815943 88.98100055882563 89.08461804984577 -1.1574201764109016 -4.160583409469703e-06 -1.2217900025017078e-07 2.576000166946861 -1.189812832053319e-06 -2.219240514912621e-06 -88.85714394970566 89.35790000000085 88.54694821605806 -1.1457797628979678 2.680116699079555e-06 0.0001567941202553612 1.145769936854448 9.963328738761893e-07 -1.8351437462293417e-06 -89.42259580737475 88.94869999999894 89.11229803384977 0.4092837470559971 8.84934280846821e-06 0.0006712723481853212 -0.636601961913734 -4.440456778905555e-06 -1.922101067528791e-06 104.36400009176045 40.50229297858532 -88.82460100849508 -7.669029387930291 0.18617839542856413 -1.3504405593312845 -11.263400000000185 7.655876868109027e-08 6.343319635429003e-05 -89.97131915539711 -57.127376785123836 78.11868184299831 -26.16378257043783 -10.831549563313141 -16.612036622108455 0.7592539907496745 3.229316544333466 -47.13803753679752 -3.695202419862195 -3.819510408105508 -43.07033834448425 -91.18710847442382 -87.82890000000052 -89.9986085577865 3.4088799654380866 -6.386921715551476e-06 0.0033165306175699516 -0.9548601187449125 -6.460761972471892e-06 1.5319141964650039e-06 -91.18713298757622 -89.40149999999925 -89.99852763102515 2.8563696794239064 -6.787437125420984e-06 0.002756623060195321 -3.168439920174114 5.047003618592309e-06 1.1456847588021697e-06 88.80848816872012 -89.71709947043468 89.99698669036643 2.544810168630477 4.155094256089534e-06 0.0024246004164569265 -2.5448199476334703 -1.6431965683195826e-06 1.1901289986127083e-06 -91.18829491042956 -86.19730000000104 -89.99979489866462 6.131040292581115 4.538808435219238e-06 0.0065569404982451845 -2.0454201550663282 -8.54667219677919e-06 4.383292299454683e-06 -101.94900000000015 -40.72420000000034 -90.06940000000097 10.017200000000015 3.80738598275255e-06 -1.2690587287448635e-06 -2.6697596492573967 -2.4007529683753377e-06 -1.233396847722736e-06 51.77540823467632 0.21964403656158682 -1.1591809292916837 -36.0253551990787 -6.478290146987929 0.6413503898480679
12.594564662568924 219.7971744136824 78.44259829119865 95.68143720082388 -39.58738121271659 91.25074797524168 -161.03415040208537 46.95161125292609 109.96230179435173 -49.88955228662914 -32.84820052590599 -8.988720649036004 52.47236473420081 -54.41032186766573 -35.32563016105735 28.78080000000004 5.31115390287038e-06 6.453348496142736e-06 -79.67654482854388 58.23573458558434 41.61658228687068 -54.65570786483093 19.078098240269853 -1.8340523146724061 47.94322542379086 36.03722993660803 25.13343240886921 28.780799809011175 1.3958698037778293e-05 2.7755985870481396e-05 0.1426318461859019 12.30988041060367 -87.04197494822434 2.2023293679725917 3.454384653944023 1.9498188681019581 -9.515501145722082 3.5215606522667433 1.779121669771613 -32.04854615670229 2.6788396464599336 2.8461465198945555 -12.03519803112413 2.641491541094157 2.850172407249087 75.74180395566412 -43.14569965197215 -125.39028493447135 0.7885630454980994 21.684530256356666 -49.57529235807483 33.297292116918165 7.227410525888534 -102.7638984333061 -7.317820986072416 0.8379209043265154 -1.17276837774418 -89.40392310522758 88.97090000000043 89.09362463072321 -0.06048752063489507 4.467620960030644e-06 -3.929741781736153e-07 -0.063921398579727 2.522631866931048e-06 -1.705516293622917e-06 -89.39481487430342 88.98100055565921 89.08461811030767 -1.1574201767398287 -4.162095228707648e-06 -1.220039722888924e-07 2.576000166921496 -1.1903311729641575e-06 -2.2193623172549695e-06 -88.85714391738487 89.35790000000085 88.54694819507063 -1.1457797628913486 2.6802194531500882e-06 0.0001568074225252456 1.1457699367619096 9.96381805046427e-07 -1.835231103432595e-06 -89.42259581198971 88.94869999999894 89.11229804359124 0.40928374696645364 8.848914916957583e-06 0.0006712682272370133 -0.6366019619831722 -4.440136356047999e-06 -1.9220580089491825e-06 104.364000091733 40.50229297803387 -88.82460100863237 -7.669029392772476 0.1861783969790739 -1.3504405588309474 -11.263400000000185 7.565951192080311e-08 6.343393341516909e-05 -89.9745472990453 -57.12324492506596 78.10833908137461 -26.229238747142915 -10.818448565475483 -16.6121486400357 0.7244571592847455 3.2085552851959154 -47.155782383096906 -3.6914474835899505 -3.826056814956548 -43.10311168066013 -91.18710848551139 -87.82890000000052 -89.99860856860862 3.408879965592506 -6.385449950719496e-06 0.003316514945702754 -0.9548601185916253 -6.46092594209353e-06 1.5313561491063254e-06 -91.18713309955923 -89.40149999999925 -89.99852774554246 2.856369677967661 -6.78738503556358e-06 0.002756630101331364 -3.1684399200622893 5.046946699737542e-06 1.1458395297896323e-06 88.80848821441276 -89.7170994774576 89.9969867150871 2.544810168657944 4.1551489818661555e-06 0.0024246197453261006 -2.5448199476524684 -1.6445136486285222e-06 1.1899878841771528e-06 -91.18829491250641 -86.19730000000104 -89.99979489926064 6.131040292246162 4.537383670785118e-06 0.0065569085020338235 -2.0454201554242077 -8.546705628428271e-06 4.380764948039868e-06 -101.94900000000015 -40.72420000000034 -90.06940000000097 10.017200000000015 3.8072678379876413e-06 -1.269530643187063e-06 -2.669759648949785 -2.4003333569075615e-06 -1.2335447731785683e-06 51.74058456866273 0.21268499253520035 -1.188544279563036 -36.022523635991135 -6.474537954981164 0.6572764007194073
12.422052502098847 220.69487606432284 78.44825030928997 95.69451050373524 -39.60482374848369 91.24744772915302 -161.01160749447982 46.95629623155847 109.9580247279043 -49.88028557705958 -32.84032275210854 -8.997953374485759 52.45577301674201 -54.404010762907745 -35.32785959592596 28.78080000000004 5.311373106797144e-06 6.45414833852692e-06 -79.67303824083731 58.24293127416278 41.63235501775016 -54.656638050339026 19.080572833738678 -1.8322763300719846 47.95812435601809 36.043427723350085 25.131865338096286 28.78079980748477 1.3958572196874964e-05 2.77562686256144e-05 0.14321557039418337 12.309731775474987 -87.04116328503248 2.2027090617665905 3.4560212282524496 1.9508956751416144 -9.515161463742528 3.5232663831047066 1.7800748297630118 -32.04820990228156 2.6800682857468368 2.84762327216781 -12.03481574189809 2.642683864080634 2.8516864919609883 75.73737771702653 -43.16548227754946 -125.38431080778277 0.7793342601624378 21.666491003150767 -49.56067169482621 33.31788053099877 7.24290006465938 -102.7459801879157 -7.322103944070213 0.8392657276982363 -1.1638480506589968 -89.40392315022456 88.97090000000043 89.09362467414546 -0.060487520765061864 4.46757874569263e-06 -3.92642920199441e-07 -0.06392139826035514 2.52253257430894e-06 -1.7053369160946367e-06 -89.39481491058403 88.98100055245708 89.08461815828883 -1.1574201769934744 -4.163279462051543e-06 -1.2185312729539836e-07 2.576000166918093 -1.190783036072082e-06 -2.219485949246238e-06 -88.85714389330444 89.35790000000085 88.54694818056065 -1.1457797628832422 2.6802447798576146e-06 0.00015681729061659065 1.1457699367067038 9.963464895061688e-07 -1.8353227280854327e-06 -89.42259582012083 88.94869999999894 89.11229805578189 0.4092837468609375 8.848635228291733e-06 0.0006712655486206132 -0.6366019620366675 -4.4398887565671605e-06 -1.9220488303177927e-06 104.36400009170356 40.5022929779934 -88.82460100880108 -7.66902939751973 0.18617839814332768 -1.3504405582420376 -11.263400000000185 7.500382791586976e-08 6.343451506411604e-05 -89.9789563883258 -57.11691289110722 78.09699547365732 -26.289348611209142 -10.802081537483993 -16.617074939547106 0.6885114631822464 3.184421691265678 -47.168245028198164 -3.6928235161369223 -3.831139563243963 -43.13524012474063 -91.18710849427119 -87.82890000000052 -89.9986085771438 3.4088799657182416 -6.384338376165478e-06 0.003316503768512422 -0.954860118299529 -6.461096350312876e-06 1.530179444674689e-06 -91.18713317669207 -89.40149999999925 -89.99852782508385 2.856369676845358 -6.787488791783613e-06 0.0027566382116271204 -3.1684399199786246 5.046706983791505e-06 1.145944919035028e-06 88.8084882479443 -89.7170994842839 89.99698673102958 2.5448101687347955 4.155185567061268e-06 0.0024246284729022324 -2.5448199476721514 -1.6455283814768259e-06 1.18990025199691e-06 -91.18829491480773 -86.19730000000104 -89.99979490033401 6.131040292023558 4.536339852053942e-06 0.006556885891817347 -2.0454201556870357 -8.546730524337161e-06 4.378129419167838e-06 -101.94900000000015 -40.72420000000034 -90.06940000000097 10.017200000000015 3.8069321959501752e-06 -1.2699455670928021e-06 -2.669759648800057 -2.4000445678222914e-06 -1.2336750984385227e-06 51.70294021739514 0.2067510275478348 -1.2175606832481352 -36.01802473189235 -6.469076320383612 0.6751275741673828
